<?xml version="1.0" standalone="no"?><!DOCTYPE svg PUBLIC "-//W3C//DTD SVG 1.1//EN" "http://www.w3.org/Graphics/SVG/1.1/DTD/svg11.dtd"><svg xmlns:xlink="http://www.w3.org/1999/xlink" version="1.1" style="font-family:'lucida grande', 'lucida sans unicode', arial, helvetica, sans-serif;font-size:12px;" xmlns="http://www.w3.org/2000/svg" width="600" height="400"><desc>Created with Highcharts 4.2.7</desc><defs><clipPath id="highcharts-13"><rect x="-100" y="-100" width="800" height="600"></rect></clipPath></defs><rect x="100" y="100" width="400" height="200" fill="#ffffff"></rect><g style="stroke:rgba(255,255,255,0);"><path fill="rgb(230,230,230)" fill-opacity="0" d="M 472.4799362870116 122.72951061916896 L 465.43945087205657 286.761875304134 L 465.5327311276494 286.4914005774999 L 472.5718137214932 122.57263418554082 Z" stroke-linejoin="round"></path><path fill="rgb(255,255,255)" fill-opacity="0" d="M 472.4799362870116 122.72951061916896 L 472.5718137214932 122.57263418554082 L 150.46583573270354 107.00517024572751 L 150.15371205435258 107.1391755409912 Z" stroke-linejoin="round"></path><path fill="rgb(255,255,255)" fill-opacity="0" d="M 155.82426326037148 259.79959584685514 L 465.43945087205657 286.761875304134 L 472.4799362870116 122.72951061916896 L 150.15371205435258 107.1391755409912 Z" stroke-linejoin="round"></path></g><g style="stroke:rgba(255,255,255,0);"><path fill="rgb(255,255,255)" fill-opacity="0" d="M 134.73259479086005 114.12790803177226 L 150.89673621399135 107.17511427246589 L 150.15371205435258 107.1391755409912 L 133.96557338433323 114.08929324339209 Z" stroke-linejoin="round"></path><path fill="rgb(255,255,255)" fill-opacity="0" d="M 140.46943018448601 271.8399313519729 L 141.20762491452084 271.90673440852953 L 134.73259479086005 114.12790803177226 L 133.96557338433323 114.08929324339209 Z" stroke-linejoin="round"></path><path fill="rgb(230,230,230)" fill-opacity="0" d="M 134.73259479086005 114.12790803177226 L 141.20762491452084 271.90673440852953 L 156.54019585820689 259.86194154418445 L 150.89673621399135 107.17511427246589 Z" stroke-linejoin="round"></path></g><g style="stroke:rgba(255,255,255,0);"><path fill="rgb(230,230,230)" fill-opacity="0" d="M 460.62854547827476 300 L 460.59468556207435 300.8097203115819 L 465.43945087205657 286.761875304134 L 465.47305520262046 285.9789466449323 Z" stroke-linejoin="round"></path><path fill="rgb(255,255,255)" fill-opacity="0" d="M 141.20762491452084 271.90673440852953 L 460.59468556207435 300.8097203115819 L 460.62854547827476 300 L 141.1766669189877 271.1523724814172 Z" stroke-linejoin="round"></path><path fill="rgb(255,255,255)" fill-opacity="0" d="M 460.62854547827476 300 L 465.47305520262046 285.9789466449323 L 156.5131765492391 259.1309196495567 L 141.1766669189877 271.1523724814172 Z" stroke-linejoin="round"></path></g><path fill="rgb(255, 255, 255)" fill-opacity=" .5" d="M 141.1921474254918 271.5295902087929 L 156.52668747581157 259.4964650139094 L 465.45625133107023 286.3704507279317 L 465.45625133107023 286.3704507279317 L 467.7388018716654 233.1905716969402 L 467.7388018716654 233.1905716969402 L 154.69326027846174 209.8921089193348 L 139.09051233731034 220.31847437571057"></path><path fill="rgb(255, 255, 255)" fill-opacity=" .5" d="M 136.9651403894365 168.52895600355123 L 152.84079917618382 159.77278031901525 L 470.04970768233943 179.3500589556015 L 470.04970768233943 179.3500589556015 L 472.4616792590516 123.15487098736638 L 472.4616792590516 123.15487098736638 L 150.9113254916842 107.56983500470247 L 134.74935692276082 114.53635547500667"></path><g class="highcharts-grid"></g><g class="highcharts-grid"></g><g class="highcharts-grid"><path fill="none" d="M 141.1921474254918 271.5295902087929 L 156.52668747581157 259.4964650139094 L 465.45625133107023 286.3704507279317 L 465.45625133107023 286.3704507279317" stroke="#C0C0C0" stroke-width="1" opacity="1"></path><path fill="none" d="M 139.09051233731034 220.31847437571057 L 154.69326027846174 209.8921089193348 L 467.7388018716654 233.1905716969402 L 467.7388018716654 233.1905716969402" stroke="#C0C0C0" stroke-width="1" opacity="1"></path><path fill="none" d="M 136.9651403894365 168.52895600355123 L 152.84079917618382 159.77278031901525 L 470.04970768233943 179.3500589556015 L 470.04970768233943 179.3500589556015" stroke="#C0C0C0" stroke-width="1" opacity="1"></path><path fill="none" d="M 134.71582925809423 113.71937771873078 L 150.8821440807113 106.78031628078661 L 472.49819718080835 122.30406018298245 L 472.49819718080835 122.30406018298245" stroke="#C0C0C0" stroke-width="1" opacity="1"></path></g><rect x="100" y="100" width="400" height="200" stroke="#026FC1" stroke-width="2" fill="none"></rect><g class="highcharts-axis"><path fill="none" d="M 0 0" stroke="#C0D0E0" stroke-width="1"></path></g><g class="highcharts-axis"></g><g class="highcharts-axis"><path fill="none" d="M 141.1921474254918 271.5295902087929 L 133.8219975586708 270.86333344009495" stroke="#C0D0E0" stroke-width="1" opacity="1"></path><path fill="none" d="M 139.09051233731034 220.31847437571057 L 131.6270150028616 219.74093661258493" stroke="#C0D0E0" stroke-width="1" opacity="1"></path><path fill="none" d="M 136.9651403894365 168.52895600355123 L 129.4073523159737 168.04372544250973" stroke="#C0D0E0" stroke-width="1" opacity="1"></path><path fill="none" d="M 134.71582925809423 113.71937771873078 L 127.05837357500275 113.33466954706067" stroke="#C0D0E0" stroke-width="1" opacity="1"></path></g><g class="highcharts-series-group"><g class="highcharts-series highcharts-series-1" transform="translate(100,100) scale(1 1)" clip-path="url(#highcharts-13)"></g><g class="highcharts-markers highcharts-series-1" transform="translate(100,100) scale(1 1)" clip-path="none"></g><g class="highcharts-series highcharts-series-0" transform="translate(100,100) scale(1 1)" clip-path="url(#highcharts-13)"><g stroke="#50b432" stroke-width="1" r="0"><path fill="#50b432" d="M 79.88538660640567 174.747094987824 L 153.46333274345946 181.3932850393963 L 153.3418006157125 171.31315074341146 L 79.57743956314755 164.83426074410488 Z" stroke-linejoin="round"></path><path fill="rgb(55,155,25)" d="M 153.3418006157125 171.31315074341146 L 153.46333274345946 181.3932850393963 L 159.4848016119497 174.93061724295768 L 159.38087626455012 165.01315503098897 Z" stroke-linejoin="round"></path><path fill="rgb(105,205,75)" d="M 153.3418006157125 171.31315074341146 L 159.38087626455012 165.01315503098897 L 86.79614672353885 158.76060403341353 L 79.57743956314755 164.83426074410488 Z" stroke-linejoin="round"></path></g><g stroke="#ED561B" stroke-width="1" r="0"><path fill="rgb(255,111,52)" d="M 319.4971867949286 76.23158774231291 L 322.79309143238044 71.30635237646995 L 242.193501733127 66.43028321013267 L 237.43131558185405 71.16667422567798 Z" stroke-linejoin="round"></path><path fill="rgb(212,61,2)" d="M 319.4971867949286 76.23158774231291 L 315.8856683219332 196.06466100936456 L 319.1503877878274 189.07605532231665 L 322.79309143238044 71.30635237646995 Z" stroke-linejoin="round"></path><path fill="#ED561B" d="M 236.32149329045984 188.87774351141292 L 315.8856683219332 196.06466100936456 L 319.4971867949286 76.23158774231291 L 237.43131558185405 71.16667422567798 Z" stroke-linejoin="round"></path></g></g><g class="highcharts-markers highcharts-series-0" transform="translate(100,100) scale(1 1)" clip-path="none"></g></g><g class="highcharts-data-labels highcharts-series-1" transform="translate(100,100) scale(1 1)" opacity="1"></g><g class="highcharts-data-labels highcharts-series-0" transform="translate(100,100) scale(1 1)" opacity="1"><g style="cursor:pointer;" transform="translate(117,144)"><text x="5" style="font-size:10px;font-weight:bold;font-family:'arial', sans-serif;color:#000000;text-shadow:0 0 6px #ffffff, 0 0 3px #ffffff;fill:#000000;text-rendering:geometricprecision;" y="15"><tspan>20</tspan></text></g><g style="cursor:pointer;" transform="translate(272,50)"><text x="5" style="font-size:10px;font-weight:bold;font-family:'arial', sans-serif;color:#000000;text-shadow:0 0 6px #ffffff, 0 0 3px #ffffff;fill:#000000;text-rendering:geometricprecision;" y="15"><tspan>217</tspan></text></g></g><g class="highcharts-legend" transform="translate(206,360)"><g><g><g class="highcharts-legend-item" transform="translate(8,3)"><text x="21" style="color:#333;font-size:9pt;font-weight:normal;cursor:pointer;font-family:'lucida grande','lucida sans unicode',arial,helvetica,sans-serif;text-transform:none;fill:#333;" text-anchor="start" y="15"><tspan>honeybee value in billions</tspan></text><rect x="0" y="4" width="16" height="12" fill="#CCC"></rect></g></g></g></g><g class="highcharts-axis-labels highcharts-xaxis-labels"><text x="216.73899337529292" style="color:#000000;cursor:default;font-size:10px;font-family:'arial', sans-serif;text-transform:none;font-weight:normal;fill:#000000;" text-anchor="middle" transform="translate(0,0)" y="291.7172971543601" z="52.216879485311374" opacity="1"><tspan>United States</tspan></text><text x="375.7020130436778" style="color:#000000;cursor:default;font-size:10px;font-family:'arial', sans-serif;text-transform:none;font-weight:normal;fill:#000000;" text-anchor="middle" transform="translate(0,0)" y="306.61871728447255" z="9.974754888765736" opacity="1"><tspan>World Wide</tspan></text></g><g class="highcharts-axis-labels highcharts-zaxis-labels"></g><g class="highcharts-axis-labels highcharts-yaxis-labels"><text x="130.2957519966606" style="color:#000000;cursor:default;font-size:10px;font-family:'arial', sans-serif;text-transform:none;font-weight:normal;fill:#000000;width:80px;text-overflow:clip;" text-anchor="end" transform="translate(0,0)" y="273.9141250623806" z="73.6635038770184" opacity="1"><tspan>0</tspan></text><text x="128.0583078725317" style="color:#000000;cursor:default;font-size:10px;font-family:'arial', sans-serif;text-transform:none;font-weight:normal;fill:#000000;width:80px;text-overflow:clip;" text-anchor="end" transform="translate(0,0)" y="222.92580662697551" z="59.01319496643768" opacity="1"><tspan>100</tspan></text><text x="125.76107689999299" style="color:#000000;cursor:default;font-size:10px;font-family:'arial', sans-serif;text-transform:none;font-weight:normal;fill:#000000;width:80px;text-overflow:clip;" text-anchor="end" transform="translate(0,0)" y="170.57502696534678" z="44.36288605585695" opacity="1"><tspan>200</tspan></text><text x="123.43731555745512" style="color:#000000;cursor:default;font-size:10px;font-family:'arial', sans-serif;text-transform:none;font-weight:normal;fill:#000000;width:80px;text-overflow:clip;" text-anchor="end" transform="translate(0,0)" y="117.61965613688807" z="29.931238472299817" opacity="1"><tspan>300</tspan></text></g><g class="highcharts-tooltip" display="none" style="cursor:default;padding:0;pointer-events:none;white-space:nowrap;" transform="translate(0,0)"><path fill="none" d="M 3.5 0.5 L 13.5 0.5 C 16.5 0.5 16.5 0.5 16.5 3.5 L 16.5 13.5 C 16.5 16.5 16.5 16.5 13.5 16.5 L 3.5 16.5 C 0.5 16.5 0.5 16.5 0.5 13.5 L 0.5 3.5 C 0.5 0.5 0.5 0.5 3.5 0.5"  stroke="black" stroke-opacity="0.049999999999999996" stroke-width="5" transform="translate(1, 1)"></path><path fill="none" d="M 3.5 0.5 L 13.5 0.5 C 16.5 0.5 16.5 0.5 16.5 3.5 L 16.5 13.5 C 16.5 16.5 16.5 16.5 13.5 16.5 L 3.5 16.5 C 0.5 16.5 0.5 16.5 0.5 13.5 L 0.5 3.5 C 0.5 0.5 0.5 0.5 3.5 0.5"  stroke="black" stroke-opacity="0.09999999999999999" stroke-width="3" transform="translate(1, 1)"></path><path fill="none" d="M 3.5 0.5 L 13.5 0.5 C 16.5 0.5 16.5 0.5 16.5 3.5 L 16.5 13.5 C 16.5 16.5 16.5 16.5 13.5 16.5 L 3.5 16.5 C 0.5 16.5 0.5 16.5 0.5 13.5 L 0.5 3.5 C 0.5 0.5 0.5 0.5 3.5 0.5"  stroke="black" stroke-opacity="0.15" stroke-width="1" transform="translate(1, 1)"></path><path fill="rgb(255, 255, 255)" fill-opacity=" 0.85" d="M 3.5 0.5 L 13.5 0.5 C 16.5 0.5 16.5 0.5 16.5 3.5 L 16.5 13.5 C 16.5 16.5 16.5 16.5 13.5 16.5 L 3.5 16.5 C 0.5 16.5 0.5 16.5 0.5 13.5 L 0.5 3.5 C 0.5 0.5 0.5 0.5 3.5 0.5"></path><text x="8" style="font-size:12px;color:#000000;fill:#000000;" y="20"></text></g><text x="590" text-anchor="end" style="cursor:pointer;color:#909090;font-size:9px;fill:#909090;" y="395">meta-chart.com</text></svg>